<svg width="50" height="50" viewBox="0 0 50 50" fill="none" xmlns="http://www.w3.org/2000/svg">
<g clip-path="url(#clip0_19_699)">
<path d="M23.6381 16.2276C25.2791 16.6823 27.565 13.6027 28.7439 9.34894C29.9227 5.0952 29.548 1.27821 27.9069 0.823435C26.2659 0.368664 23.98 3.44833 22.8012 7.70207C21.6223 11.9558 21.997 15.7728 23.6381 16.2276Z" fill="#113461"/>
<path d="M13.4713 48.7276C15.1124 49.1824 17.3983 46.1027 18.5771 41.849C19.7559 37.5952 19.3812 33.7782 17.7402 33.3234C16.0992 32.8687 13.8133 35.9483 12.6344 40.2021C11.4556 44.4558 11.8303 48.2728 13.4713 48.7276Z" fill="#113461"/>
<path d="M29.1772 2.45001L35.283 15.0404L28.0478 16.3971L29.1772 2.45001Z" fill="#113461"/>
<path d="M15.5567 47.7553L21.5635 35.1175L27.1467 39.915L15.5567 47.7553Z" fill="#113461"/>
<path d="M35.4227 15.1402L27.4877 12.5L19.1666 37.509L27.1017 40.1492L35.4227 15.1402Z" fill="#113461"/>
<path d="M19.8333 41.8334C21.3061 41.8334 22.5 40.5275 22.5 38.9167C22.5 37.3058 21.3061 36 19.8333 36C18.3606 36 17.1667 37.3058 17.1667 38.9167C17.1667 40.5275 18.3606 41.8334 19.8333 41.8334Z" fill="#113461"/>
<path d="M28.8333 15.5C30.3061 15.5 31.5 14.1942 31.5 12.5834C31.5 10.9725 30.3061 9.66669 28.8333 9.66669C27.3606 9.66669 26.1667 10.9725 26.1667 12.5834C26.1667 14.1942 27.3606 15.5 28.8333 15.5Z" fill="#113461"/>
</g>
<defs>
<clipPath id="clip0_19_699">
<rect width="50" height="50" fill="white"/>
</clipPath>
</defs>
</svg>
