<svg width="30" height="30" viewBox="0 0 30 30" fill="none" xmlns="http://www.w3.org/2000/svg">
<path d="M22.8829 9.73655C23.8675 10.0094 25.239 8.16161 25.9463 5.60937C26.6536 3.05712 26.4288 0.766924 25.4442 0.494061C24.4596 0.221199 23.088 2.069 22.3807 4.62124C21.6734 7.17348 21.8982 9.46368 22.8829 9.73655Z" fill="white"/>
<path d="M16.7828 29.2366C17.7674 29.5094 19.1389 27.6616 19.8462 25.1094C20.5535 22.5571 20.3287 20.2669 19.3441 19.9941C18.3595 19.7212 16.9879 21.569 16.2806 24.1213C15.5733 26.6735 15.7981 28.9637 16.7828 29.2366Z" fill="white"/>
<path d="M26.2063 1.46997L29.8698 9.02417L25.5287 9.83822L26.2063 1.46997Z" fill="white"/>
<path d="M18.0341 28.6533L21.6381 21.0706L24.988 23.9491L18.0341 28.6533Z" fill="white"/>
<path d="M29.9537 9.0841L25.1926 7.5L20.2 22.5054L24.961 24.0895L29.9537 9.0841Z" fill="white"/>
<path d="M20.6 25.1001C21.4837 25.1001 22.2 24.3166 22.2 23.3501C22.2 22.3836 21.4837 21.6001 20.6 21.6001C19.7163 21.6001 19 22.3836 19 23.3501C19 24.3166 19.7163 25.1001 20.6 25.1001Z" fill="white"/>
<path d="M26 9.30005C26.8837 9.30005 27.6 8.51655 27.6 7.55005C27.6 6.58355 26.8837 5.80005 26 5.80005C25.1164 5.80005 24.4 6.58355 24.4 7.55005C24.4 8.51655 25.1164 9.30005 26 9.30005Z" fill="white"/>
</svg>
