<svg width="25" height="30" viewBox="0 0 25 30" fill="none" xmlns="http://www.w3.org/2000/svg">
<path d="M12.0634 24.5455L7.57251 12.7637H16.5542L12.0634 24.5455Z" fill="white"/>
<path d="M11.9542 15.3818C14.8784 15.3818 17.2489 13.2572 17.2489 10.6363C17.2489 8.01548 14.8784 5.89087 11.9542 5.89087C9.02997 5.89087 6.65942 8.01548 6.65942 10.6363C6.65942 13.2572 9.02997 15.3818 11.9542 15.3818Z" fill="white"/>
<path d="M11.8996 11.6728C12.5025 11.6728 12.9913 11.1844 12.9913 10.5819C12.9913 9.97938 12.5025 9.49097 11.8996 9.49097C11.2966 9.49097 10.8079 9.97938 10.8079 10.5819C10.8079 11.1844 11.2966 11.6728 11.8996 11.6728Z" fill="#113461"/>
</svg>
