<svg width="300" height="300" viewBox="0 0 300 300" fill="none" xmlns="http://www.w3.org/2000/svg">
<circle cx="150" cy="150" r="150" fill="white"/>
<path d="M69.541 144.041L64.834 157H62.9102L68.3301 142.781H69.5703L69.541 144.041ZM73.4863 157L68.7695 144.041L68.7402 142.781H69.9805L75.4199 157H73.4863ZM73.2422 151.736V153.279H65.2539V151.736H73.2422ZM83.3984 154.559V146.434H85.2148V157H83.4863L83.3984 154.559ZM83.7402 152.332L84.4922 152.312C84.4922 153.016 84.4173 153.667 84.2676 154.266C84.1243 154.858 83.89 155.372 83.5645 155.809C83.2389 156.245 82.8125 156.587 82.2852 156.834C81.7578 157.075 81.1165 157.195 80.3613 157.195C79.847 157.195 79.375 157.12 78.9453 156.971C78.5221 156.821 78.1576 156.59 77.8516 156.277C77.5456 155.965 77.3079 155.558 77.1387 155.057C76.9759 154.555 76.8945 153.953 76.8945 153.25V146.434H78.7012V153.27C78.7012 153.745 78.7533 154.139 78.8574 154.451C78.9681 154.757 79.1146 155.001 79.2969 155.184C79.4857 155.359 79.694 155.483 79.9219 155.555C80.1562 155.626 80.3971 155.662 80.6445 155.662C81.4128 155.662 82.0215 155.516 82.4707 155.223C82.9199 154.923 83.2422 154.523 83.4375 154.021C83.6393 153.514 83.7402 152.951 83.7402 152.332ZM92.3926 146.434V147.82H86.6797V146.434H92.3926ZM88.6133 143.865H90.4199V154.383C90.4199 154.741 90.4753 155.011 90.5859 155.193C90.6966 155.376 90.8398 155.496 91.0156 155.555C91.1914 155.613 91.3802 155.643 91.582 155.643C91.7318 155.643 91.888 155.63 92.0508 155.604C92.2201 155.571 92.347 155.545 92.4316 155.525L92.4414 157C92.2982 157.046 92.1094 157.088 91.875 157.127C91.6471 157.173 91.3704 157.195 91.0449 157.195C90.6022 157.195 90.1953 157.107 89.8242 156.932C89.4531 156.756 89.1569 156.463 88.9355 156.053C88.7207 155.636 88.6133 155.076 88.6133 154.373V143.865ZM93.8379 151.834V151.609C93.8379 150.848 93.9486 150.141 94.1699 149.49C94.3913 148.833 94.7103 148.263 95.127 147.781C95.5436 147.293 96.0482 146.915 96.6406 146.648C97.2331 146.375 97.8971 146.238 98.6328 146.238C99.375 146.238 100.042 146.375 100.635 146.648C101.234 146.915 101.742 147.293 102.158 147.781C102.581 148.263 102.904 148.833 103.125 149.49C103.346 150.141 103.457 150.848 103.457 151.609V151.834C103.457 152.596 103.346 153.302 103.125 153.953C102.904 154.604 102.581 155.174 102.158 155.662C101.742 156.144 101.237 156.521 100.645 156.795C100.059 157.062 99.3945 157.195 98.6523 157.195C97.9102 157.195 97.2428 157.062 96.6504 156.795C96.0579 156.521 95.5501 156.144 95.127 155.662C94.7103 155.174 94.3913 154.604 94.1699 153.953C93.9486 153.302 93.8379 152.596 93.8379 151.834ZM95.6445 151.609V151.834C95.6445 152.361 95.7064 152.859 95.8301 153.328C95.9538 153.79 96.1393 154.201 96.3867 154.559C96.6406 154.917 96.9564 155.2 97.334 155.408C97.7116 155.61 98.151 155.711 98.6523 155.711C99.1471 155.711 99.5801 155.61 99.9512 155.408C100.329 155.2 100.641 154.917 100.889 154.559C101.136 154.201 101.322 153.79 101.445 153.328C101.576 152.859 101.641 152.361 101.641 151.834V151.609C101.641 151.089 101.576 150.597 101.445 150.135C101.322 149.666 101.133 149.253 100.879 148.895C100.632 148.53 100.319 148.243 99.9414 148.035C99.5703 147.827 99.1341 147.723 98.6328 147.723C98.138 147.723 97.7018 147.827 97.3242 148.035C96.9531 148.243 96.6406 148.53 96.3867 148.895C96.1393 149.253 95.9538 149.666 95.8301 150.135C95.7064 150.597 95.6445 151.089 95.6445 151.609ZM107.52 148.533V157H105.703V146.434H107.422L107.52 148.533ZM107.148 151.316L106.309 151.287C106.315 150.564 106.41 149.897 106.592 149.285C106.774 148.667 107.044 148.13 107.402 147.674C107.76 147.218 108.206 146.867 108.74 146.619C109.274 146.365 109.893 146.238 110.596 146.238C111.09 146.238 111.546 146.31 111.963 146.453C112.38 146.59 112.741 146.808 113.047 147.107C113.353 147.407 113.59 147.791 113.76 148.26C113.929 148.729 114.014 149.295 114.014 149.959V157H112.207V150.047C112.207 149.493 112.113 149.051 111.924 148.719C111.742 148.387 111.481 148.146 111.143 147.996C110.804 147.84 110.407 147.762 109.951 147.762C109.417 147.762 108.971 147.856 108.613 148.045C108.255 148.234 107.969 148.494 107.754 148.826C107.539 149.158 107.383 149.539 107.285 149.969C107.194 150.392 107.148 150.841 107.148 151.316ZM113.994 150.32L112.783 150.691C112.79 150.112 112.884 149.555 113.066 149.021C113.255 148.488 113.525 148.012 113.877 147.596C114.235 147.179 114.674 146.85 115.195 146.609C115.716 146.362 116.312 146.238 116.982 146.238C117.549 146.238 118.05 146.313 118.486 146.463C118.929 146.613 119.3 146.844 119.6 147.156C119.906 147.462 120.137 147.856 120.293 148.338C120.449 148.82 120.527 149.393 120.527 150.057V157H118.711V150.037C118.711 149.445 118.617 148.986 118.428 148.66C118.245 148.328 117.985 148.097 117.646 147.967C117.314 147.83 116.917 147.762 116.455 147.762C116.058 147.762 115.706 147.83 115.4 147.967C115.094 148.104 114.837 148.292 114.629 148.533C114.421 148.768 114.261 149.038 114.15 149.344C114.046 149.65 113.994 149.975 113.994 150.32ZM122.783 151.834V151.609C122.783 150.848 122.894 150.141 123.115 149.49C123.337 148.833 123.656 148.263 124.072 147.781C124.489 147.293 124.993 146.915 125.586 146.648C126.178 146.375 126.842 146.238 127.578 146.238C128.32 146.238 128.988 146.375 129.58 146.648C130.179 146.915 130.687 147.293 131.104 147.781C131.527 148.263 131.849 148.833 132.07 149.49C132.292 150.141 132.402 150.848 132.402 151.609V151.834C132.402 152.596 132.292 153.302 132.07 153.953C131.849 154.604 131.527 155.174 131.104 155.662C130.687 156.144 130.182 156.521 129.59 156.795C129.004 157.062 128.34 157.195 127.598 157.195C126.855 157.195 126.188 157.062 125.596 156.795C125.003 156.521 124.495 156.144 124.072 155.662C123.656 155.174 123.337 154.604 123.115 153.953C122.894 153.302 122.783 152.596 122.783 151.834ZM124.59 151.609V151.834C124.59 152.361 124.652 152.859 124.775 153.328C124.899 153.79 125.085 154.201 125.332 154.559C125.586 154.917 125.902 155.2 126.279 155.408C126.657 155.61 127.096 155.711 127.598 155.711C128.092 155.711 128.525 155.61 128.896 155.408C129.274 155.2 129.587 154.917 129.834 154.559C130.081 154.201 130.267 153.79 130.391 153.328C130.521 152.859 130.586 152.361 130.586 151.834V151.609C130.586 151.089 130.521 150.597 130.391 150.135C130.267 149.666 130.078 149.253 129.824 148.895C129.577 148.53 129.264 148.243 128.887 148.035C128.516 147.827 128.079 147.723 127.578 147.723C127.083 147.723 126.647 147.827 126.27 148.035C125.898 148.243 125.586 148.53 125.332 148.895C125.085 149.253 124.899 149.666 124.775 150.135C124.652 150.597 124.59 151.089 124.59 151.609ZM139.092 146.434V147.82H133.379V146.434H139.092ZM135.312 143.865H137.119V154.383C137.119 154.741 137.174 155.011 137.285 155.193C137.396 155.376 137.539 155.496 137.715 155.555C137.891 155.613 138.079 155.643 138.281 155.643C138.431 155.643 138.587 155.63 138.75 155.604C138.919 155.571 139.046 155.545 139.131 155.525L139.141 157C138.997 157.046 138.809 157.088 138.574 157.127C138.346 157.173 138.07 157.195 137.744 157.195C137.301 157.195 136.895 157.107 136.523 156.932C136.152 156.756 135.856 156.463 135.635 156.053C135.42 155.636 135.312 155.076 135.312 154.373V143.865ZM143.018 148.094V157H141.211V146.434H142.969L143.018 148.094ZM146.318 146.375L146.309 148.055C146.159 148.022 146.016 148.003 145.879 147.996C145.749 147.983 145.599 147.977 145.43 147.977C145.013 147.977 144.645 148.042 144.326 148.172C144.007 148.302 143.737 148.484 143.516 148.719C143.294 148.953 143.118 149.233 142.988 149.559C142.865 149.878 142.783 150.229 142.744 150.613L142.236 150.906C142.236 150.268 142.298 149.669 142.422 149.109C142.552 148.549 142.751 148.055 143.018 147.625C143.285 147.189 143.623 146.85 144.033 146.609C144.45 146.362 144.945 146.238 145.518 146.238C145.648 146.238 145.798 146.255 145.967 146.287C146.136 146.313 146.253 146.342 146.318 146.375ZM149.951 146.434V157H148.135V146.434H149.951ZM147.998 143.631C147.998 143.338 148.086 143.09 148.262 142.889C148.444 142.687 148.711 142.586 149.062 142.586C149.408 142.586 149.671 142.687 149.854 142.889C150.042 143.09 150.137 143.338 150.137 143.631C150.137 143.911 150.042 144.152 149.854 144.354C149.671 144.549 149.408 144.646 149.062 144.646C148.711 144.646 148.444 144.549 148.262 144.354C148.086 144.152 147.998 143.911 147.998 143.631ZM160.723 155.516V157H153.037V155.516H160.723ZM160.439 147.713L153.447 157H152.344V155.672L159.287 146.434H160.439V147.713ZM159.639 146.434V147.928H152.422V146.434H159.639ZM169.893 142.781V157H168.008V142.781H169.893ZM175.85 149.178V150.721H169.482V149.178H175.85ZM176.816 142.781V144.324H169.482V142.781H176.816ZM185.039 154.559V146.434H186.855V157H185.127L185.039 154.559ZM185.381 152.332L186.133 152.312C186.133 153.016 186.058 153.667 185.908 154.266C185.765 154.858 185.531 155.372 185.205 155.809C184.88 156.245 184.453 156.587 183.926 156.834C183.398 157.075 182.757 157.195 182.002 157.195C181.488 157.195 181.016 157.12 180.586 156.971C180.163 156.821 179.798 156.59 179.492 156.277C179.186 155.965 178.949 155.558 178.779 155.057C178.617 154.555 178.535 153.953 178.535 153.25V146.434H180.342V153.27C180.342 153.745 180.394 154.139 180.498 154.451C180.609 154.757 180.755 155.001 180.938 155.184C181.126 155.359 181.335 155.483 181.562 155.555C181.797 155.626 182.038 155.662 182.285 155.662C183.053 155.662 183.662 155.516 184.111 155.223C184.561 154.923 184.883 154.523 185.078 154.021C185.28 153.514 185.381 152.951 185.381 152.332ZM193.994 157.195C193.258 157.195 192.591 157.072 191.992 156.824C191.4 156.57 190.889 156.215 190.459 155.76C190.036 155.304 189.71 154.764 189.482 154.139C189.255 153.514 189.141 152.83 189.141 152.088V151.678C189.141 150.818 189.268 150.053 189.521 149.383C189.775 148.706 190.12 148.133 190.557 147.664C190.993 147.195 191.488 146.84 192.041 146.6C192.594 146.359 193.167 146.238 193.76 146.238C194.515 146.238 195.166 146.368 195.713 146.629C196.266 146.889 196.719 147.254 197.07 147.723C197.422 148.185 197.682 148.732 197.852 149.363C198.021 149.988 198.105 150.672 198.105 151.414V152.225H190.215V150.75H196.299V150.613C196.273 150.145 196.175 149.689 196.006 149.246C195.843 148.803 195.583 148.439 195.225 148.152C194.867 147.866 194.378 147.723 193.76 147.723C193.35 147.723 192.972 147.811 192.627 147.986C192.282 148.156 191.986 148.41 191.738 148.748C191.491 149.087 191.299 149.5 191.162 149.988C191.025 150.477 190.957 151.04 190.957 151.678V152.088C190.957 152.589 191.025 153.061 191.162 153.504C191.305 153.94 191.51 154.324 191.777 154.656C192.051 154.988 192.38 155.249 192.764 155.438C193.154 155.626 193.597 155.721 194.092 155.721C194.73 155.721 195.27 155.59 195.713 155.33C196.156 155.07 196.543 154.721 196.875 154.285L197.969 155.154C197.741 155.499 197.451 155.828 197.1 156.141C196.748 156.453 196.315 156.707 195.801 156.902C195.293 157.098 194.691 157.195 193.994 157.195ZM202.021 148.689V157H200.215V146.434H201.924L202.021 148.689ZM201.592 151.316L200.84 151.287C200.846 150.564 200.954 149.897 201.162 149.285C201.37 148.667 201.663 148.13 202.041 147.674C202.419 147.218 202.868 146.867 203.389 146.619C203.916 146.365 204.499 146.238 205.137 146.238C205.658 146.238 206.126 146.31 206.543 146.453C206.96 146.59 207.314 146.811 207.607 147.117C207.907 147.423 208.135 147.82 208.291 148.309C208.447 148.79 208.525 149.38 208.525 150.076V157H206.709V150.057C206.709 149.503 206.628 149.061 206.465 148.729C206.302 148.39 206.064 148.146 205.752 147.996C205.439 147.84 205.055 147.762 204.6 147.762C204.15 147.762 203.74 147.856 203.369 148.045C203.005 148.234 202.689 148.494 202.422 148.826C202.161 149.158 201.956 149.539 201.807 149.969C201.663 150.392 201.592 150.841 201.592 151.316ZM215.693 146.434V147.82H209.98V146.434H215.693ZM211.914 143.865H213.721V154.383C213.721 154.741 213.776 155.011 213.887 155.193C213.997 155.376 214.141 155.496 214.316 155.555C214.492 155.613 214.681 155.643 214.883 155.643C215.033 155.643 215.189 155.63 215.352 155.604C215.521 155.571 215.648 155.545 215.732 155.525L215.742 157C215.599 157.046 215.41 157.088 215.176 157.127C214.948 157.173 214.671 157.195 214.346 157.195C213.903 157.195 213.496 157.107 213.125 156.932C212.754 156.756 212.458 156.463 212.236 156.053C212.021 155.636 211.914 155.076 211.914 154.373V143.865ZM222.197 157.195C221.462 157.195 220.794 157.072 220.195 156.824C219.603 156.57 219.092 156.215 218.662 155.76C218.239 155.304 217.913 154.764 217.686 154.139C217.458 153.514 217.344 152.83 217.344 152.088V151.678C217.344 150.818 217.471 150.053 217.725 149.383C217.979 148.706 218.324 148.133 218.76 147.664C219.196 147.195 219.691 146.84 220.244 146.6C220.798 146.359 221.37 146.238 221.963 146.238C222.718 146.238 223.369 146.368 223.916 146.629C224.469 146.889 224.922 147.254 225.273 147.723C225.625 148.185 225.885 148.732 226.055 149.363C226.224 149.988 226.309 150.672 226.309 151.414V152.225H218.418V150.75H224.502V150.613C224.476 150.145 224.378 149.689 224.209 149.246C224.046 148.803 223.786 148.439 223.428 148.152C223.07 147.866 222.581 147.723 221.963 147.723C221.553 147.723 221.175 147.811 220.83 147.986C220.485 148.156 220.189 148.41 219.941 148.748C219.694 149.087 219.502 149.5 219.365 149.988C219.229 150.477 219.16 151.04 219.16 151.678V152.088C219.16 152.589 219.229 153.061 219.365 153.504C219.508 153.94 219.714 154.324 219.98 154.656C220.254 154.988 220.583 155.249 220.967 155.438C221.357 155.626 221.8 155.721 222.295 155.721C222.933 155.721 223.473 155.59 223.916 155.33C224.359 155.07 224.746 154.721 225.078 154.285L226.172 155.154C225.944 155.499 225.654 155.828 225.303 156.141C224.951 156.453 224.518 156.707 224.004 156.902C223.496 157.098 222.894 157.195 222.197 157.195ZM234.57 154.197C234.57 153.937 234.512 153.696 234.395 153.475C234.284 153.247 234.053 153.042 233.701 152.859C233.356 152.671 232.835 152.508 232.139 152.371C231.553 152.247 231.022 152.101 230.547 151.932C230.078 151.762 229.678 151.557 229.346 151.316C229.02 151.076 228.77 150.792 228.594 150.467C228.418 150.141 228.33 149.76 228.33 149.324C228.33 148.908 228.421 148.514 228.604 148.143C228.792 147.771 229.056 147.443 229.395 147.156C229.74 146.87 230.153 146.645 230.635 146.482C231.117 146.32 231.654 146.238 232.246 146.238C233.092 146.238 233.815 146.388 234.414 146.688C235.013 146.987 235.472 147.387 235.791 147.889C236.11 148.383 236.27 148.934 236.27 149.539H234.463C234.463 149.246 234.375 148.963 234.199 148.689C234.03 148.41 233.779 148.178 233.447 147.996C233.122 147.814 232.721 147.723 232.246 147.723C231.745 147.723 231.338 147.801 231.025 147.957C230.719 148.107 230.495 148.299 230.352 148.533C230.215 148.768 230.146 149.015 230.146 149.275C230.146 149.471 230.179 149.646 230.244 149.803C230.316 149.952 230.439 150.092 230.615 150.223C230.791 150.346 231.038 150.464 231.357 150.574C231.676 150.685 232.083 150.796 232.578 150.906C233.444 151.102 234.157 151.336 234.717 151.609C235.277 151.883 235.693 152.218 235.967 152.615C236.24 153.012 236.377 153.494 236.377 154.061C236.377 154.523 236.279 154.946 236.084 155.33C235.895 155.714 235.618 156.046 235.254 156.326C234.896 156.6 234.466 156.814 233.965 156.971C233.47 157.12 232.913 157.195 232.295 157.195C231.364 157.195 230.576 157.029 229.932 156.697C229.287 156.365 228.799 155.936 228.467 155.408C228.135 154.881 227.969 154.324 227.969 153.738H229.785C229.811 154.233 229.954 154.627 230.215 154.92C230.475 155.206 230.794 155.411 231.172 155.535C231.549 155.652 231.924 155.711 232.295 155.711C232.79 155.711 233.203 155.646 233.535 155.516C233.874 155.385 234.131 155.206 234.307 154.979C234.482 154.751 234.57 154.49 234.57 154.197Z" fill="#8BAB03"/>
<path d="M240.072 177.061C240.658 176.475 240.658 175.525 240.072 174.939L230.526 165.393C229.94 164.808 228.99 164.808 228.405 165.393C227.819 165.979 227.819 166.929 228.405 167.515L236.89 176L228.405 184.485C227.819 185.071 227.819 186.021 228.405 186.607C228.99 187.192 229.94 187.192 230.526 186.607L240.072 177.061ZM61 177.5H239.011V174.5H61V177.5Z" fill="#8BAB03"/>
</svg>
